<?xml version="1.0" standalone="yes"?>
<svg xmlns="http://www.w3.org/2000/svg" width="512" height="512">
<path style="fill:#18232c; stroke:none;" d="M0 0L0 233L1 233C1.05472 213.169 6.767 192.685 13 174C36.336 104.046 91.6796 45.7492 160 18.2006C182.536 9.11368 208.482 1.06754 233 1L211 0L164 0L0 0z"/>
<path style="fill:#4ddac5; stroke:none;" d="M233 0.424377C189.58 6.14221 149.775 18.1407 113 42.6667C85.2422 61.179 61.179 85.2423 42.6667 113C-40.3989 237.55 2.78717 414.469 137 483.742C185.649 508.851 240.956 516.998 295 509.718C329.593 505.058 363.575 491.891 393 473.319C418.105 457.473 440.333 437.414 458.576 414C547.896 299.358 521.461 128.868 403 45.294C378.358 27.9091 350.265 14.9448 321 7.62656C293.139 0.659424 261.7 -3.35498 233 0.424377z"/>
<path style="fill:#18232c; stroke:none;" d="M279 0L279 1C303.613 1.01624 329.357 9.14255 352 18.1998C420.349 45.5402 475.696 104.143 499 174C505.223 192.655 510.945 213.199 511 233L512 233L512 0L279 0M122 96L122 416L390 416L390 96L122 96z"/>
<path style="fill:#f3f4f7; stroke:none;" d="M140 117L140 168L372 168L372 117L140 117z"/>
<path style="fill:#c47466; stroke:none;" d="M344.667 127.333L345.333 127.667L344.667 127.333z"/>
<path style="fill:#18232c; stroke:none;" d="M346.001 127.613C333.301 130.637 335.29 158.196 350 155.183C362.924 152.536 361.018 124.037 346.001 127.613z"/>
<path style="fill:#c47466; stroke:none;" d="M350.667 127.333L351.333 127.667L350.667 127.333M342 128L343 129L342 128M353 128L354 129L353 128M341 129L342 130L341 129M354 129L355 130L354 129M340 130L341 131L340 130M346 130L346 131L350 131L346 130M339 131L340 132L339 131M344 131L345 132L344 131z"/>
<path style="fill:#f3f4f7; stroke:none;" d="M345.148 132.032C338.79 135.698 341.005 156.127 350.867 150.806C358.537 146.667 355.166 126.254 345.148 132.032z"/>
<path style="fill:#c47466; stroke:none;" d="M351 131L352 132L351 131z"/>
<path style="fill:#faa15d; stroke:none;" d="M343 132L344 133L343 132z"/>
<path style="fill:#c47466; stroke:none;" d="M357 132L358 133L357 132M338.333 133.667L338.667 134.333L338.333 133.667M342 133L343 134L342 133z"/>
<path style="fill:#faa15d; stroke:none;" d="M353 133L354 134L353 133z"/>
<path style="fill:#c47466; stroke:none;" d="M354.333 134.667L354.667 135.333L354.333 134.667M358 134L358 148L359 148L358 134M341.333 135.667L341.667 136.333L341.333 135.667z"/>
<path style="fill:#faa15d; stroke:none;" d="M341 137L341 146L342 146L341 137M337 138L337 145L338 145L337 138z"/>
<path style="fill:#c47466; stroke:none;" d="M341.333 146.667L341.667 147.333L341.333 146.667z"/>
<path style="fill:#faa15d; stroke:none;" d="M354 146L355 147L354 146z"/>
<path style="fill:#c47466; stroke:none;" d="M354 147L355 148L354 147M338 148L339 149L338 148z"/>
<path style="fill:#faa15d; stroke:none;" d="M338 149L339 150L338 149z"/>
<path style="fill:#c47466; stroke:none;" d="M353 149L354 150L353 149M343 150L344 151L343 150M352 150L353 151L352 150z"/>
<path style="fill:#faa15d; stroke:none;" d="M357 150L358 151L357 150M339 151L340 152L339 151z"/>
<path style="fill:#c47466; stroke:none;" d="M345 151L346 152L345 151M350 151L351 152L350 151M356 151L357 152L356 151M340 152L341 153L340 152M355 152L356 153L355 152M341 153L342 154L341 153M354 153L355 154L354 153z"/>
<path style="fill:#faa15d; stroke:none;" d="M342 154L343 155L342 154z"/>
<path style="fill:#c47466; stroke:none;" d="M343 154L344 155L343 154M353 154L354 155L353 154z"/>
<path style="fill:#faa15d; stroke:none;" d="M344 155L345 156L344 155z"/>
<path style="fill:#c47466; stroke:none;" d="M345.667 155.333L346.333 155.667L345.667 155.333M349.667 155.333L350.333 155.667L349.667 155.333z"/>
<path style="fill:#faa15d; stroke:none;" d="M351 155L352 156L351 155z"/>
<path style="fill:#c47466; stroke:none;" d="M140 168L140 169L372 169L350 168L303 168L140 168M160 195L160 196L245 196L219 195L160 195M267.667 195.333L268.333 195.667L267.667 195.333z"/>
<path style="fill:#faa15d; stroke:none;" d="M269.015 195.533C259.36 197.952 258.626 226.749 263.858 233.721C268.315 239.661 290.424 238.349 296.995 236.427C306.618 233.614 303.004 215.78 303 208C302.999 204.836 303.506 200.929 301.397 198.279C296.638 192.301 275.812 193.83 269.015 195.533z"/>
<path style="fill:#c47466; stroke:none;" d="M297.667 195.333L298.333 195.667L297.667 195.333M316 201L317 201C323.355 192.658 344.494 194.737 354 197C346.911 191.629 320.024 192.651 316 201M158 196C153.34 202.479 150.955 232.904 160.019 236.397C167.097 239.124 178.457 237 186 237L245 237L245 236L180 236C173.927 236 161.732 238.374 157.603 232.852C151.563 224.772 156.794 204.909 158 196z"/>
<path style="fill:#faa15d; stroke:none;" d="M159.148 197.028C152.804 200.784 155.882 220.476 156.005 227C156.062 230.034 156.238 233.249 159.148 234.972C164.159 237.939 174.324 236 180 236L227 236C232.218 236 241.229 237.71 245.852 234.972C252.196 231.216 249.118 211.524 248.995 205C248.938 201.966 248.762 198.751 245.852 197.028C241.229 194.29 232.218 196 227 196L180 196C174.324 196 164.159 194.061 159.148 197.028z"/>
<path style="fill:#c47466; stroke:none;" d="M246 196L247 197L246 196M265 196L266 197L265 196M300 196L301 197L300 196z"/>
<path style="fill:#faa15d; stroke:none;" d="M320.109 197.028C313.538 200.727 313.504 228.067 318.009 233.566C321.938 238.362 348.613 237.975 353.772 234.821C359.598 231.258 359.093 203.44 354.991 198.434C351.093 193.676 325.315 194.097 320.109 197.028z"/>
<path style="fill:#c47466; stroke:none;" d="M247 197L248 198L247 197M301 197L302 198L301 197M355.333 197.667L355.667 198.333L355.333 197.667M248 198L249 199L248 198M263 198L264 199L263 198M302 198L303 199L302 198M262.333 199.667L262.667 200.333L262.333 199.667M356.333 199.667L356.667 200.333L356.333 199.667M249 200L249 233L250 233L249 200M303 200L303 232L304 232L303 200M357 202L357 230L358 230L357 202M262.333 231.667L262.667 232.333L262.333 231.667M316.333 231.667L316.667 232.333L316.333 231.667M356 232L357 233L356 232M248 233L249 234L248 233M302 233L303 234L302 233M317.333 233.667L317.667 234.333L317.333 233.667M247 234L248 235L247 234M301 234L302 235L301 234M355 234L356 235L355 234M246 235L247 236L246 235M300 235L301 236L300 235M319 235L320 236L319 235M353 235L354 236L353 235M266.667 236.333L267.333 236.667L266.667 236.333M297.667 236.333L298.333 236.667L297.667 236.333M320 236L320 237L353 237L320 236M158 248L156 251L158 248z"/>
<path style="fill:#f3f4f7; stroke:none;" d="M159.109 249.028C152.519 252.737 152.572 280.154 156.742 285.852C160.712 291.276 187.188 291.235 192.772 287.821C195.566 286.113 195.891 282.978 195.985 280C196.203 273.037 198.949 255.948 194.258 250.434C190.217 245.684 164.386 246.057 159.109 249.028z"/>
<path style="fill:#c47466; stroke:none;" d="M192 248L193 249L192 248M212 248L213 249L212 248z"/>
<path style="fill:#f3f4f7; stroke:none;" d="M213.059 248.742C205.635 251.849 208.986 271.311 209 278C209.006 280.808 208.616 284.28 210.603 286.566C214.831 291.431 239.17 290.672 244.956 288.397C252.51 285.426 252.669 257.065 248.258 251.228C243.958 245.539 219.315 246.124 213.059 248.742z"/>
<path style="fill:#faa15d; stroke:none;" d="M245 248L246 249L245 248z"/>
<path style="fill:#c47466; stroke:none;" d="M265 248L263 251L265 248z"/>
<path style="fill:#faa15d; stroke:none;" d="M266 248L267 249L266 248z"/>
<path style="fill:#f3f4f7; stroke:none;" d="M267.044 248.742C259.445 251.839 259.355 279.857 263.742 285.852C267.864 291.484 292.785 290.834 298.941 288.258C306.365 285.152 303.014 265.689 303 259C302.994 256.192 303.384 252.72 301.397 250.434C297.113 245.504 272.85 246.376 267.044 248.742z"/>
<path style="fill:#c47466; stroke:none;" d="M299 248L300 249L299 248M319 248L320 249L319 248z"/>
<path style="fill:#f3f4f7; stroke:none;" d="M320.059 249.028C313.637 252.545 313.346 281.221 317.894 286.566C321.96 291.347 348.543 291.018 353.772 287.821C356.566 286.113 356.891 282.978 356.985 280C357.201 273.113 359.949 255.986 355.258 250.573C351.017 245.679 325.56 246.015 320.059 249.028z"/>
<path style="fill:#c47466; stroke:none;" d="M353 248L354 249L353 248M210 249L211 250L210 249M247 249L248 250L247 249M301 249L302 250L301 249z"/>
<path style="fill:#faa15d; stroke:none;" d="M318 249L319 250L318 249M354 249L355 250L354 249z"/>
<path style="fill:#c47466; stroke:none;" d="M248 250L249 251L248 250z"/>
<path style="fill:#faa15d; stroke:none;" d="M317 250L318 251L317 250z"/>
<path style="fill:#c47466; stroke:none;" d="M195 251L196 252L195 251M316 251L317 252L316 251M356 251L357 252L356 251M155 252L156 253L155 252M249 252L250 253L249 252M262 252L263 253L262 252M208 253L208 285L209 285L208 253M303 253L303 285L304 285L303 253M357 254L357 283L358 283L357 254z"/>
<path style="fill:#18232c; stroke:none;" d="M0 279L0 512L234 512L234 511C145.46 510.941 58.8909 441.504 23.3086 364C15.3815 346.734 9.1692 328.588 5.21065 310C3.1708 300.422 3.70501 287.826 0 279M511 279C510.984 303.575 502.908 329.41 493.799 352C466.204 420.437 408.076 475.619 338 499C319.309 505.236 298.846 510.945 279 511L279 512L512 512L512 348L512 301L511 279z"/>
<path style="fill:#c47466; stroke:none;" d="M155 284L156 285L155 284M249 284L250 285L249 284M262 284L263 285L262 284M195 285L196 286L195 285M316 285L317 286L316 285M356 285L357 286L356 285M156 286L157 287L156 286M248 286L249 287L248 286M263 286L264 287L263 286z"/>
<path style="fill:#faa15d; stroke:none;" d="M317 286L318 287L317 286M157 287L158 288L157 287z"/>
<path style="fill:#c47466; stroke:none;" d="M210 287L211 288L210 287M247 287L248 288L247 287M264 287L265 288L264 287M301 287L302 288L301 287M158 288L159 289L158 288M192 288L193 289L192 288M212 288L213 289L212 288M246 288L247 289L246 288M265 288L266 289L265 288z"/>
<path style="fill:#faa15d; stroke:none;" d="M299 288L300 289L299 288z"/>
<path style="fill:#c47466; stroke:none;" d="M319 288L320 289L319 288M353 288L354 289L353 288M161 289L161 290L190 290L161 289M215 289L215 290L244 290L215 289M268 289L268 290L297 290L268 289M322 289L322 290L351 290L322 289M159.667 300.333L160.333 300.667L159.667 300.333z"/>
<path style="fill:#faa15d; stroke:none;" d="M161 300L162 301L161 300z"/>
<path style="fill:#f3f4f7; stroke:none;" d="M162.005 300.483C152.334 302.632 151.656 331.79 156.858 338.721C161.303 344.644 183.432 343.368 189.985 341.427C198.431 338.926 199.223 309.52 194.258 303.303C189.426 297.253 168.879 298.956 162.005 300.483z"/>
<path style="fill:#faa15d; stroke:none;" d="M189 300L190 301L189 300z"/>
<path style="fill:#c47466; stroke:none;" d="M190.667 300.333L191.333 300.667L190.667 300.333M213.667 300.333L214.333 300.667L213.667 300.333z"/>
<path style="fill:#faa15d; stroke:none;" d="M215 300L216 301L215 300z"/>
<path style="fill:#f3f4f7; stroke:none;" d="M216.001 300.483C205.303 302.835 208.999 319.693 209 328C209 331.409 208.326 335.861 210.603 338.721C215.292 344.611 237.295 343.422 243.981 341.427C252.538 338.875 253.077 309.646 248.142 303.419C243.257 297.255 222.963 298.952 216.001 300.483z"/>
<path style="fill:#faa15d; stroke:none;" d="M243 300L244 301L243 300z"/>
<path style="fill:#c47466; stroke:none;" d="M244 300L245 301L244 300M267 300L268 301L267 300z"/>
<path style="fill:#faa15d; stroke:none;" d="M268 300L269 301L268 300z"/>
<path style="fill:#f3f4f7; stroke:none;" d="M269.005 300.533C259.365 302.917 258.59 331.702 263.858 338.721C268.315 344.661 290.423 343.349 296.995 341.427C306.499 338.649 303 321.666 303 314C303 310.624 303.693 306.118 301.397 303.303C296.523 297.329 275.837 298.844 269.005 300.533z"/>
<path style="fill:#faa15d; stroke:none;" d="M296.667 300.333L297.333 300.667L296.667 300.333z"/>
<path style="fill:#c47466; stroke:none;" d="M298 300L299 301L298 300M320 300L320 301L353 301L320 300M193 301L194 302L193 301M211 301L212 302L211 301z"/>
<path style="fill:#faa15d; stroke:none;" d="M246 301L247 302L246 301M265 301L266 302L265 301z"/>
<path style="fill:#c47466; stroke:none;" d="M300 301L301 302L300 301z"/>
<path style="fill:#faa15d; stroke:none;" d="M319.228 302.028C312.719 306.008 316 325.313 316 332L316 375C316 379.886 314.54 387.735 318.434 391.486C322.869 395.758 332.383 394 338 394C342.861 394 349.636 395.113 353.852 392.142C360.396 387.53 357 368.232 357 361L357 318C357 313.51 358.384 305.921 354.566 302.603C350.331 298.923 339.291 301 334 301C329.776 301 322.975 299.737 319.228 302.028z"/>
<path style="fill:#c47466; stroke:none;" d="M194 302L195 303L194 302M210 302L211 303L210 302z"/>
<path style="fill:#faa15d; stroke:none;" d="M301 302L302 303L301 302z"/>
<path style="fill:#c47466; stroke:none;" d="M317 302L318 303L317 302M355 302L356 303L355 302M209 303L210 304L209 303M302 303L303 304L302 303M155 304L156 305L155 304z"/>
<path style="fill:#faa15d; stroke:none;" d="M195 304L196 305L195 304z"/>
<path style="fill:#c47466; stroke:none;" d="M249 304L250 305L249 304M262 304L263 305L262 304M316 304L317 305L316 304M356 304L357 305L356 304z"/>
<path style="fill:#faa15d; stroke:none;" d="M155 305L156 306L155 305z"/>
<path style="fill:#c47466; stroke:none;" d="M208 305L208 337L209 337L208 305z"/>
<path style="fill:#faa15d; stroke:none;" d="M249 305L250 306L249 305M262 305L263 306L262 305z"/>
<path style="fill:#c47466; stroke:none;" d="M303 305L303 337L304 337L303 305M357 307L357 388L358 388L358 332L357 307z"/>
<path style="fill:#faa15d; stroke:none;" d="M155 336L156 337L155 336M249 336L250 337L249 336M262 336L263 337L262 336z"/>
<path style="fill:#c47466; stroke:none;" d="M155 337L156 338L155 337z"/>
<path style="fill:#faa15d; stroke:none;" d="M195 337L196 338L195 337z"/>
<path style="fill:#c47466; stroke:none;" d="M249 337L250 338L249 337M262 337L263 338L262 337M209 338L210 339L209 338M302 338L303 339L302 338M156 339L157 340L156 339M194 339L195 340L194 339z"/>
<path style="fill:#faa15d; stroke:none;" d="M210 339L211 340L210 339M301 339L302 340L301 339z"/>
<path style="fill:#c47466; stroke:none;" d="M157 340L158 341L157 340M193 340L194 341L193 340M211 340L212 341L211 340M300 340L301 341L300 340M159 341L160 342L159 341z"/>
<path style="fill:#faa15d; stroke:none;" d="M160 341L161 342L160 341M190 341L191 342L190 341z"/>
<path style="fill:#c47466; stroke:none;" d="M191 341L192 342L191 341M213 341L214 342L213 341z"/>
<path style="fill:#faa15d; stroke:none;" d="M214 341L215 342L214 341z"/>
<path style="fill:#c47466; stroke:none;" d="M244.667 341.333L245.333 341.667L244.667 341.333M266.667 341.333L267.333 341.667L266.667 341.333z"/>
<path style="fill:#faa15d; stroke:none;" d="M297 341L298 342L297 341z"/>
<path style="fill:#c47466; stroke:none;" d="M298 341L299 342L298 341M158 353L159 354L158 353z"/>
<path style="fill:#f3f4f7; stroke:none;" d="M159.109 354.028C152.587 357.699 152.508 385.168 156.742 390.772C160.989 396.391 186.048 396.049 191.941 392.821C198.218 389.383 198.76 360.727 194.258 355.434C190.217 350.684 164.386 351.057 159.109 354.028z"/>
<path style="fill:#c47466; stroke:none;" d="M192 353L193 354L192 353M212 353L213 354L212 353z"/>
<path style="fill:#f3f4f7; stroke:none;" d="M213.059 353.742C206.65 356.424 206.636 385.147 210.179 390.606C214.04 396.553 238.914 395.72 244.956 393.258C252.482 390.191 252.719 362.131 248.258 356.228C243.958 350.539 219.315 351.124 213.059 353.742z"/>
<path style="fill:#faa15d; stroke:none;" d="M245 353L246 354L245 353z"/>
<path style="fill:#c47466; stroke:none;" d="M246 353L247 354L246 353M265 353L263 356L265 353z"/>
<path style="fill:#f3f4f7; stroke:none;" d="M266.109 354.028C259.587 357.699 259.508 385.168 263.742 390.772C267.998 396.403 293.939 396.153 299.772 392.682C306.162 388.879 303.013 370.503 303 364C302.994 361.192 303.384 357.72 301.397 355.434C297.275 350.691 271.427 351.034 266.109 354.028z"/>
<path style="fill:#c47466; stroke:none;" d="M299 353L300 354L299 353z"/>
<path style="fill:#faa15d; stroke:none;" d="M157 354L158 355L157 354z"/>
<path style="fill:#c47466; stroke:none;" d="M210 354L211 355L210 354M247 354L248 355L247 354M301 354L302 355L301 354z"/>
<path style="fill:#faa15d; stroke:none;" d="M156 355L157 356L156 355z"/>
<path style="fill:#c47466; stroke:none;" d="M209 355L210 356L209 355M248 355L249 356L248 355M302 355L303 356L302 355M155.333 356.667L155.667 357.333L155.333 356.667M195 356L196 357L195 356M208 357L208 389L209 389L208 357M249 357L250 358L249 357M262 357L263 358L262 357M303 357L303 389L304 389L303 357M155 389L156 390L155 389M249 389L250 390L249 389M262 389L263 390L262 389M316.333 389.667L316.667 390.333L316.333 389.667M195 390L196 391L195 390z"/>
<path style="fill:#faa15d; stroke:none;" d="M209 390L210 391L209 390M302 390L303 391L302 390z"/>
<path style="fill:#c47466; stroke:none;" d="M356 390L357 391L356 390M156 391L157 392L156 391z"/>
<path style="fill:#faa15d; stroke:none;" d="M194 391L195 392L194 391z"/>
<path style="fill:#c47466; stroke:none;" d="M248 391L249 392L248 391M263 391L264 392L263 391M317 391L318 392L317 391M355 391L356 392L355 391M157 392L158 393L157 392M193 392L194 393L193 392z"/>
<path style="fill:#faa15d; stroke:none;" d="M211 392L212 393L211 392z"/>
<path style="fill:#c47466; stroke:none;" d="M247 392L248 393L247 392M264 392L265 393L264 392M318 392L319 393L318 392M354 392L355 393L354 392M159 393L160 394L159 393M191.667 393.333L192.333 393.667L191.667 393.333M212.667 393.333L213.333 393.667L212.667 393.333M245 393L246 394L245 393M266 393L267 394L266 393z"/>
<path style="fill:#faa15d; stroke:none;" d="M298 393L299 394L298 393z"/>
<path style="fill:#c47466; stroke:none;" d="M299 393L300 394L299 393M320.667 393.333L321.333 393.667L320.667 393.333M351.667 393.333L352.333 393.667L351.667 393.333z"/>
</svg>
